<?xml version="1.0" standalone="no"?>
<!DOCTYPE svg PUBLIC "-//W3C//DTD SVG 20010904//EN"
 "http://www.w3.org/TR/2001/REC-SVG-20010904/DTD/svg10.dtd">
<svg version="1.0" xmlns="http://www.w3.org/2000/svg"
 width="900.000000pt" height="900.000000pt" viewBox="0 0 900.000000 900.000000"
 preserveAspectRatio="xMidYMid meet">
<metadata>
Created by potrace 1.11, written by Peter Selinger 2001-2013
</metadata>
<g transform="translate(0.000000,900.000000) scale(0.100000,-0.100000)"
fill="#000000" stroke="none">
<path d="M0 5250 l0 -3750 4500 0 4500 0 0 3750 0 3750 -4500 0 -4500 0 0
-3750z m6595 130 c111 -35 184 -79 266 -160 61 -60 84 -92 117 -160 42 -88 72
-193 72 -248 l0 -32 -182 2 -182 3 -12 67 c-15 79 -56 161 -96 189 -69 49
-119 63 -228 63 -127 1 -186 -21 -251 -91 -94 -102 -122 -220 -121 -518 0
-311 32 -438 135 -530 59 -54 122 -75 223 -75 159 0 247 43 300 146 18 34 35
85 39 113 l7 51 184 0 184 0 0 -28 c0 -52 -39 -182 -75 -250 -47 -90 -111
-161 -193 -215 -134 -89 -256 -121 -452 -120 -215 1 -364 57 -494 188 -126
125 -195 276 -226 490 -15 106 -12 386 5 490 54 335 239 558 527 635 104 29
350 23 453 -10z m-3795 -4 c318 -58 509 -276 510 -582 0 -86 -30 -211 -67
-273 -46 -79 -128 -156 -213 -200 -127 -67 -208 -81 -477 -88 l-233 -6 0 -308
0 -309 -190 0 -190 0 0 883 c0 486 3 887 7 890 3 4 180 7 392 7 280 -1 407 -4
461 -14z m1905 -15 c270 -73 395 -229 383 -475 -8 -154 -68 -260 -185 -330
l-49 -30 68 -33 c131 -66 197 -174 206 -336 15 -283 -133 -468 -420 -528 -83
-17 -138 -19 -495 -19 l-403 0 0 891 0 891 408 -4 c381 -4 412 -6 487 -27z"/>
<path d="M2320 4815 l0 -276 223 3 c205 3 225 5 262 25 90 48 127 117 128 234
0 124 -55 215 -155 260 -49 22 -69 24 -255 27 l-203 4 0 -277z"/>
<path d="M4180 4869 l0 -221 193 4 c178 3 195 5 240 27 66 32 100 85 105 162
8 103 -26 177 -96 213 -48 25 -141 36 -294 36 l-148 0 0 -221z"/>
<path d="M4180 4144 l0 -235 208 3 c200 3 209 4 257 29 73 37 106 90 112 176
7 95 -9 149 -62 199 -58 56 -97 64 -324 64 l-191 0 0 -236z"/>
</g>
</svg>
