<?xml version="1.0" standalone="no"?>
<!DOCTYPE svg PUBLIC "-//W3C//DTD SVG 20010904//EN"
 "http://www.w3.org/TR/2001/REC-SVG-20010904/DTD/svg10.dtd">
<svg version="1.0" xmlns="http://www.w3.org/2000/svg"
 width="152.000000pt" height="152.000000pt" viewBox="0 0 152.000000 152.000000"
 preserveAspectRatio="xMidYMid meet">
<metadata>
Created by potrace 1.11, written by Peter Selinger 2001-2013
</metadata>
<g transform="translate(0.000000,152.000000) scale(0.100000,-0.100000)"
fill="#000000" stroke="none">
<path d="M565 1494 c-240 -49 -443 -242 -506 -480 -20 -76 -28 -225 -15 -283
28 -128 85 -247 152 -320 12 -13 20 -29 17 -35 -3 -6 -3 -8 1 -4 9 7 56 -30
56 -44 0 -5 -5 -6 -12 -2 -7 4 -8 3 -4 -5 6 -9 11 -9 21 -1 11 9 17 7 27 -9 7
-12 18 -21 23 -21 6 0 33 -14 60 -31 27 -17 60 -33 74 -36 15 -2 28 -8 29 -14
2 -5 8 -7 13 -3 5 3 9 1 9 -5 0 -5 14 -8 32 -6 31 4 31 4 10 -11 -12 -8 -22
-21 -21 -27 0 -8 3 -7 6 2 4 9 7 10 12 2 4 -6 17 -13 29 -16 12 -2 26 -6 31
-10 5 -3 12 -1 16 5 3 5 11 10 17 10 6 0 4 -8 -5 -18 -14 -15 -15 -19 -2 -19
8 0 12 4 10 8 -3 3 2 12 10 19 17 14 20 30 4 30 -5 0 -8 -4 -5 -8 6 -11 -25
-9 -43 3 -10 5 -12 4 -7 -3 4 -7 2 -12 -3 -12 -6 0 -11 6 -11 13 0 9 -2 9 -9
-1 -6 -10 -11 -9 -22 4 -12 16 -12 17 4 11 10 -4 17 -2 17 6 0 8 3 8 9 -2 6
-9 10 -10 16 -2 5 9 10 9 20 1 7 -6 19 -8 28 -4 21 8 30 -12 16 -37 -11 -21
-11 -21 14 -3 24 18 24 20 9 39 -17 20 -17 20 4 3 16 -14 23 -15 34 -5 12 10
12 9 1 -5 -8 -11 -9 -18 -3 -18 6 0 14 5 17 10 3 6 12 10 18 10 7 0 6 -4 -3
-10 -13 -8 -13 -10 1 -10 23 0 30 11 18 27 -9 9 -8 13 0 13 6 0 11 -4 11 -8 0
-5 6 -9 13 -9 6 0 21 -4 32 -8 19 -6 19 -6 2 8 -16 13 -16 15 -2 21 9 3 13 2
10 -3 -3 -5 -1 -12 5 -16 6 -4 8 -10 5 -15 -3 -5 4 -8 15 -7 19 1 29 17 11 17
-5 0 -11 7 -14 14 -11 29 21 5 33 -25 14 -33 18 -34 44 -14 16 12 22 12 45 -2
19 -11 22 -11 9 -1 -19 16 -14 28 9 28 8 0 11 -4 8 -10 -3 -5 -1 -10 5 -10 7
0 9 7 6 16 -3 9 -6 17 -6 20 0 2 -7 1 -15 -2 -9 -4 -15 0 -15 8 0 8 -10 20
-22 26 -13 6 -17 11 -10 11 6 1 21 -8 32 -19 15 -15 20 -16 20 -6 0 8 5 18 12
22 8 5 9 2 5 -10 -4 -10 0 -27 8 -39 8 -12 15 -16 15 -10 0 7 -5 15 -10 18 -8
5 -7 11 1 21 9 11 9 17 -1 29 -8 9 -8 15 -2 15 6 0 12 -5 14 -12 5 -13 28 -2
28 13 0 6 -4 8 -9 4 -15 -9 -25 15 -12 28 9 9 10 7 5 -8 l-7 -20 24 20 c13 11
19 13 13 5 -6 -8 -9 -28 -8 -45 2 -19 0 -25 -5 -16 -6 9 -11 10 -15 2 -4 -6
-2 -11 4 -11 6 0 8 -5 4 -11 -4 -8 -9 -7 -16 2 -7 11 -8 9 -4 -4 3 -10 6 -22
6 -25 0 -4 7 4 16 16 12 17 19 20 29 12 9 -7 16 -5 26 7 13 16 12 17 -4 4 -19
-15 -24 -2 -6 16 12 12 42 6 34 -6 -2 -4 2 -8 10 -8 12 0 12 3 3 15 -10 11 -8
18 11 33 13 10 27 16 32 13 5 -3 17 0 26 6 15 9 14 10 -6 4 l-24 -6 19 25 c11
14 22 23 26 20 4 -2 5 3 2 11 -3 9 -10 16 -16 16 -5 0 -6 -5 -2 -12 4 -7 3 -8
-4 -4 -8 5 -10 2 -6 -8 7 -18 -11 -22 -22 -5 -4 8 -9 7 -15 -2 -4 -7 -11 -10
-16 -6 -8 9 17 28 28 21 4 -2 13 4 20 13 12 15 12 16 -6 9 -11 -4 -3 7 18 24
20 18 36 38 35 45 -2 8 1 14 6 13 5 0 12 5 16 12 5 7 14 8 33 1 21 -8 25 -7
20 4 -3 8 -8 13 -12 11 -4 -3 -13 -1 -20 3 -10 6 -9 10 4 14 10 5 14 3 9 -5
-5 -7 -3 -8 5 -4 7 5 18 0 27 -10 14 -18 14 -18 7 0 -5 15 -3 17 8 11 8 -5 5
1 -5 13 -19 22 -10 32 11 11 7 -7 13 -7 17 -1 8 14 -3 42 -17 42 -7 0 -7 -4 1
-12 21 -21 13 -29 -12 -13 -21 14 -23 21 -16 45 7 23 5 32 -7 38 -14 8 -13 10
1 15 9 4 23 4 31 1 13 -5 13 -8 0 -27 -17 -25 -19 -37 -5 -37 6 0 10 7 10 15
0 9 6 12 15 9 8 -4 15 -1 15 6 0 6 -4 9 -9 5 -6 -3 -9 4 -8 15 1 23 8 25 26 8
10 -11 11 -9 5 5 -4 12 -14 17 -25 14 -10 -3 -18 -2 -17 2 2 19 -3 24 -12 11
-6 -9 -10 -10 -10 -3 0 6 7 18 15 27 21 21 19 28 -7 22 -13 -3 -17 -3 -10 0 9
4 10 9 2 19 -8 10 -8 15 0 20 6 4 14 4 17 1 3 -3 13 0 22 7 14 11 14 10 2 -5
-11 -15 -11 -18 0 -18 11 0 11 -2 -1 -10 -8 -5 -10 -10 -4 -10 6 0 11 -7 11
-15 0 -8 -5 -11 -10 -8 -6 4 -7 1 -2 -7 6 -9 4 -11 -5 -5 -9 5 -11 4 -6 -3 9
-15 11 -15 31 4 12 12 13 19 4 30 -14 17 -1 18 21 2 9 -7 5 -3 -8 10 -25 23
-25 41 0 26 16 -11 42 -15 33 -6 -4 4 -12 7 -18 7 -7 1 -11 6 -10 13 2 7 -4 9
-15 5 -14 -6 -15 -4 -5 8 10 12 10 18 1 27 -7 7 -8 12 -2 12 6 0 15 -5 21 -11
8 -8 13 -7 18 2 5 7 4 10 -2 6 -6 -4 -17 1 -24 10 -12 15 -12 16 6 10 l20 -7
-20 15 c-11 9 -19 18 -17 20 1 3 2 6 1 8 -5 16 -4 47 3 47 4 0 8 5 8 10 0 6
-8 5 -20 -2 -11 -7 -16 -14 -10 -16 19 -7 10 -18 -15 -18 -22 0 -23 1 -9 17 9
10 11 19 6 23 -6 3 -12 3 -15 -1 -2 -5 -2 -2 0 5 2 8 0 19 -4 25 -11 18 -12
37 -2 37 5 0 9 -3 9 -8 0 -4 14 -8 30 -8 17 -1 30 3 30 8 0 5 -4 7 -9 3 -5 -3
-12 -1 -16 5 -4 6 -10 8 -15 5 -19 -12 -47 14 -45 42 0 15 -5 34 -12 41 -7 8
-10 19 -6 25 4 7 6 23 4 36 -2 17 1 21 11 16 7 -5 10 -4 5 0 -11 13 -48 14
-38 1 14 -19 21 -46 11 -46 -6 0 -10 6 -10 13 0 6 -16 38 -35 70 -19 32 -33
63 -29 68 3 5 2 8 -3 7 -4 -2 -8 1 -8 6 0 5 -10 12 -22 17 -13 5 -23 16 -23
24 0 10 -5 13 -12 9 -8 -5 -9 -2 -5 9 3 9 3 16 -1 15 -16 -5 -52 24 -46 35 4
7 4 9 -1 5 -5 -5 -22 3 -39 16 -130 99 -348 145 -521 110z m851 -667 c1 -9 -4
-24 -12 -31 -11 -12 -11 -15 3 -20 11 -5 13 -10 6 -17 -13 -13 -64 -19 -57 -7
3 5 12 7 20 4 8 -3 14 1 14 10 0 9 -5 12 -12 8 -10 -6 -10 -4 0 8 11 14 10 18
-5 27 -17 11 -17 11 1 9 10 -2 21 3 23 10 3 7 -1 10 -10 6 -8 -3 -18 -1 -21 5
-4 6 4 9 20 8 17 -2 28 -9 30 -20z m-75 -200 c-10 -9 -11 -8 -5 6 3 10 9 15
12 12 3 -3 0 -11 -7 -18z m-1 -42 c0 -2 -6 -5 -13 -8 -8 -3 -14 1 -14 8 0 7 6
11 14 8 7 -3 13 -6 13 -8z m-9 -34 c-6 -10 -7 -22 -3 -27 4 -5 -2 -2 -13 6
-30 21 -32 24 -13 17 9 -3 19 0 22 9 3 8 8 14 11 14 3 0 1 -8 -4 -19z m-3 -40
c15 6 23 7 19 3 -4 -4 -1 -14 6 -22 10 -13 9 -14 -10 -4 -12 7 -28 11 -35 10
-6 -2 -13 4 -13 12 -1 8 0 10 2 3 3 -9 11 -9 31 -2z m-66 -53 c-6 -6 -12 -5
-17 3 -5 8 -4 10 3 5 8 -5 12 1 13 16 1 18 2 19 6 4 3 -10 0 -23 -5 -28z m-14
-43 c-3 -3 -9 2 -12 12 -6 14 -5 15 5 6 7 -7 10 -15 7 -18z m-18 -17 c0 -6 -3
-8 -7 -5 -3 4 -12 -1 -20 -11 -13 -15 -13 -15 -3 6 11 23 30 30 30 10z m-60
-43 c0 -8 -4 -15 -10 -15 -5 0 -7 7 -4 15 4 8 8 15 10 15 2 0 4 -7 4 -15z
m-34 -53 c-2 -4 -1 -14 5 -22 7 -12 9 -12 9 4 0 12 5 16 15 13 8 -4 17 -2 20
3 8 14 28 13 23 -1 -2 -6 -6 -9 -10 -7 -3 2 -16 -10 -28 -25 -12 -15 -25 -26
-28 -23 -3 4 -14 -1 -24 -11 -17 -15 -18 -15 -18 1 0 9 4 15 9 11 5 -3 12 -1
16 5 3 5 -2 11 -12 11 -17 1 -17 2 0 6 9 2 17 9 17 14 0 6 -6 7 -12 3 -9 -5
-9 -2 1 9 14 17 26 24 17 9z m-131 -70 c-3 -3 -11 0 -18 7 -9 10 -8 11 6 5 10
-3 15 -9 12 -12z m-24 -57 c-1 -5 -13 -9 -26 -8 -14 1 -24 -2 -22 -6 1 -5 -2
-9 -8 -10 -5 0 -9 8 -9 19 1 11 -3 20 -7 20 -5 0 -9 5 -9 11 0 6 13 1 29 -11
18 -12 32 -16 36 -10 3 5 2 10 -2 10 -5 0 -18 7 -29 16 -13 11 -9 11 15 -3 19
-10 33 -22 32 -28z"/>
<path d="M1156 275 c-3 -9 -11 -13 -17 -9 -8 5 -9 3 -4 -5 6 -10 11 -9 23 3 9
8 13 18 10 21 -3 3 -8 -1 -12 -10z"/>
<path d="M1270 1200 c0 -5 5 -10 11 -10 5 0 7 5 4 10 -3 6 -8 10 -11 10 -2 0
-4 -4 -4 -10z"/>
<path d="M1310 1181 c0 -6 4 -13 10 -16 6 -3 7 1 4 9 -7 18 -14 21 -14 7z"/>
<path d="M1360 1100 c-9 -6 -10 -10 -3 -10 6 0 15 5 18 10 8 12 4 12 -15 0z"/>
<path d="M1340 1066 c7 -7 13 -7 20 0 6 6 3 10 -10 10 -13 0 -16 -4 -10 -10z"/>
<path d="M1365 1050 c-3 -5 -3 -14 0 -20 3 -5 0 -10 -7 -10 -9 0 -9 -3 2 -10
13 -9 13 -10 0 -10 -13 0 -13 -2 0 -9 18 -12 34 -3 22 12 -5 7 -8 22 -7 35 2
24 -1 27 -10 12z"/>
<path d="M1390 1020 c0 -5 5 -10 11 -10 5 0 7 5 4 10 -3 6 -8 10 -11 10 -2 0
-4 -4 -4 -10z"/>
<path d="M1376 924 c9 -13 20 -21 25 -18 11 6 12 34 2 35 -5 0 -16 2 -25 4
-16 3 -16 1 -2 -21z m22 -9 c-3 -3 -9 2 -12 12 -6 14 -5 15 5 6 7 -7 10 -15 7
-18z"/>
<path d="M1430 862 c0 -5 7 -9 15 -9 8 0 12 4 9 9 -3 4 -9 8 -15 8 -5 0 -9 -4
-9 -8z"/>
<path d="M1365 710 c3 -5 11 -10 16 -10 6 0 7 5 4 10 -3 6 -11 10 -16 10 -6 0
-7 -4 -4 -10z"/>
<path d="M1355 600 c3 -5 8 -10 11 -10 2 0 4 5 4 10 0 6 -5 10 -11 10 -5 0 -7
-4 -4 -10z"/>
<path d="M1396 547 c3 -10 9 -15 12 -12 3 3 0 11 -7 18 -10 9 -11 8 -5 -6z"/>
<path d="M1295 439 c-4 -5 -11 -6 -17 -3 -7 5 -8 2 -3 -5 4 -8 -4 -24 -21 -42
-20 -21 -23 -29 -12 -29 9 0 23 -10 32 -22 l17 -23 -11 23 c-6 13 -7 22 -1 22
5 0 11 -4 13 -9 2 -5 9 -2 17 6 11 12 11 14 0 12 -26 -3 -40 1 -35 10 4 5 17
8 31 7 21 -3 23 -1 14 16 -15 27 -2 36 17 12 15 -18 15 -18 5 2 -12 25 -38 38
-46 23z m9 -40 c-3 -5 -9 -7 -14 -4 -11 7 -32 -20 -22 -30 4 -5 1 -5 -6 -1
-11 6 -9 13 9 32 20 22 47 24 33 3z"/>
<path d="M356 257 c3 -10 9 -15 12 -12 3 3 0 11 -7 18 -10 9 -11 8 -5 -6z"/>
<path d="M1190 250 c-8 -5 -12 -12 -9 -15 4 -3 12 1 19 10 14 17 11 19 -10 5z"/>
<path d="M387 239 c7 -7 15 -10 18 -7 3 3 -2 9 -12 12 -14 6 -15 5 -6 -5z"/>
<path d="M406 203 c-6 -14 -5 -15 5 -6 7 7 10 15 7 18 -3 3 -9 -2 -12 -12z"/>
<path d="M443 203 c8 -8 23 -16 33 -17 10 -2 19 -8 19 -14 0 -6 5 -14 10 -19
6 -4 7 -4 3 1 -4 5 0 15 10 23 9 8 12 12 6 9 -6 -3 -19 1 -30 8 -10 8 -25 11
-33 8 -8 -3 -12 -1 -8 5 3 5 -1 10 -9 10 -13 0 -13 -2 -1 -14z"/>
<path d="M785 150 c-13 -14 -21 -17 -31 -9 -8 7 -14 7 -19 -2 -6 -8 -9 -8 -15
0 -5 9 -10 7 -20 -4 -11 -13 -10 -14 5 -9 14 6 16 4 10 -7 -6 -11 -5 -12 5 -2
10 10 17 10 28 1 10 -9 16 -8 23 3 5 8 9 9 9 3 0 -7 15 -11 35 -11 19 1 35 5
35 10 0 11 33 5 42 -8 4 -5 6 -1 6 11 -2 14 -9 20 -27 20 -32 1 -54 7 -62 17
-3 4 -14 -2 -24 -13z m25 -10 c0 -5 5 -10 11 -10 5 0 7 4 4 10 -4 6 1 7 11 3
33 -12 -12 -24 -54 -14 -7 2 10 21 19 21 5 0 9 -4 9 -10z"/>
<path d="M950 130 c-11 -7 -11 -10 -2 -10 8 0 10 -5 6 -12 -4 -7 -3 -9 1 -5 7
6 17 37 12 37 -1 0 -9 -5 -17 -10z"/>
<path d="M910 111 c0 -6 4 -13 10 -16 6 -3 7 1 4 9 -7 18 -14 21 -14 7z"/>
<path d="M670 102 c0 -4 9 -8 19 -8 11 0 17 4 15 8 -7 10 -34 10 -34 0z"/>
<path d="M730 100 c0 -5 5 -10 11 -10 5 0 7 5 4 10 -3 6 -8 10 -11 10 -2 0 -4
-4 -4 -10z"/>
</g>
</svg>
